<?xml version="1.0" encoding="UTF-8"?>
<svg width="100px" height="54px" viewBox="0 0 100 54" version="1.1" xmlns="http://www.w3.org/2000/svg" xmlns:xlink="http://www.w3.org/1999/xlink">
    <!-- Generator: Sketch 45.2 (43514) - http://www.bohemiancoding.com/sketch -->
    <title>tff-logo</title>
    <desc>Created with Sketch.</desc>
    <defs></defs>
    <g id="Webpage" stroke="none" stroke-width="1" fill="none" fill-rule="evenodd">
        <g id="FreelanceFundSite-Copy" transform="translate(-251.000000, -80.000000)" fill="#3A866C">
            <g id="Group-9" transform="translate(250.000000, 78.000000)">
                <path d="M4.8262668,17.677995 L9.0868666,17.677995 L9.0868666,6.08085927 L12.9131334,6.08085927 L12.9131334,2.791187 L1,2.791187 L1,6.08085927 L4.8262668,6.08085927 L4.8262668,17.677995 Z M14.4436401,17.677995 L18.1458118,17.677995 L18.1458118,11.5775269 C18.1458118,10.1825392 18.8903826,9.51627651 19.9865564,9.51627651 C21.0620476,9.51627651 21.5377456,10.1200771 21.5377456,11.348499 L21.5377456,17.677995 L25.2399173,17.677995 L25.2399173,10.5989535 C25.2399173,7.80897824 23.7921406,6.49727348 21.7032058,6.49727348 C19.9038263,6.49727348 18.7249224,7.41338474 18.1458118,8.53770311 L18.1458118,2 L14.4436401,2 L14.4436401,17.677995 Z M32.6442606,17.9278436 C29.2523268,17.9278436 26.770424,15.9290554 26.770424,12.3687139 L26.770424,12.2021482 C26.770424,8.7042688 29.3557394,6.49727348 32.6235781,6.49727348 C35.5811789,6.49727348 38.1251293,8.20457174 38.1251293,12.1188653 L38.1251293,13.0974387 L30.5139607,13.0974387 C30.6173733,14.5340677 31.4446743,15.3668962 32.7683557,15.3668962 C33.9886246,15.3668962 34.5056877,14.804737 34.6504654,14.0760121 L38.1251293,14.0760121 C37.7942089,16.532856 35.9120993,17.9278436 32.6442606,17.9278436 Z M30.5553257,10.994547 L34.5263702,10.994547 C34.4643226,9.68284219 33.8231644,8.95411732 32.6235781,8.95411732 C31.5067218,8.95411732 30.7414685,9.68284219 30.5553257,10.994547 Z M1.99276112,36.7140733 L6.25336091,36.7140733 L6.25336091,31.4464335 L10.8241986,31.4464335 L10.8241986,28.3025062 L6.25336091,28.3025062 L6.25336091,25.1377582 L11.9824199,25.1377582 L11.9824199,21.8272652 L1.99276112,21.8272652 L1.99276112,36.7140733 Z M13.6370217,36.7140733 L17.3391934,36.7140733 L17.3391934,31.550537 C17.3391934,29.8015974 18.5801448,29.0936932 20.8345398,29.1561553 L20.8345398,25.6790967 C19.1592554,25.658276 18.0217166,26.3661801 17.3391934,27.9901955 L17.3391934,25.8248416 L13.6370217,25.8248416 L13.6370217,36.7140733 Z M27.7838676,36.9639218 C24.3919338,36.9639218 21.910031,34.9651336 21.910031,31.4047921 L21.910031,31.2382264 C21.910031,27.740347 24.4953464,25.5333517 27.7631851,25.5333517 C30.7207859,25.5333517 33.2647363,27.24065 33.2647363,31.1549435 L33.2647363,32.1335169 L25.6535677,32.1335169 C25.7569804,33.570146 26.5842813,34.4029744 27.9079628,34.4029744 C29.1282316,34.4029744 29.6452947,33.8408152 29.7900724,33.1120903 L33.2647363,33.1120903 C32.9338159,35.5689342 31.0517063,36.9639218 27.7838676,36.9639218 Z M25.6949328,30.0306252 L29.6659772,30.0306252 C29.6039297,28.7189204 28.9627715,27.9901955 27.7631851,27.9901955 C26.6463289,27.9901955 25.8810755,28.7189204 25.6949328,30.0306252 Z M40.1520165,36.9639218 C36.7600827,36.9639218 34.2781799,34.9651336 34.2781799,31.4047921 L34.2781799,31.2382264 C34.2781799,27.740347 36.8634953,25.5333517 40.131334,25.5333517 C43.0889349,25.5333517 45.6328852,27.24065 45.6328852,31.1549435 L45.6328852,32.1335169 L38.0217166,32.1335169 C38.1251293,33.570146 38.9524302,34.4029744 40.2761117,34.4029744 C41.4963806,34.4029744 42.0134436,33.8408152 42.1582213,33.1120903 L45.6328852,33.1120903 C45.3019648,35.5689342 43.4198552,36.9639218 40.1520165,36.9639218 Z M38.0630817,30.0306252 L42.0341262,30.0306252 C41.9720786,28.7189204 41.3309204,27.9901955 40.131334,27.9901955 C39.0144778,27.9901955 38.2492244,28.7189204 38.0630817,30.0306252 Z M47.3288521,36.7140733 L51.0103413,36.7140733 L51.0103413,21.0360782 L47.3288521,21.0360782 L47.3288521,36.7140733 Z M56.3464323,36.9639218 C54.4022751,36.9639218 52.6856256,36.0061691 52.6856256,33.6950702 C52.6856256,31.1341228 54.8366081,30.1347287 58.4353671,30.1347287 L59.4694933,30.1347287 L59.4694933,29.8848802 C59.4694933,28.8438447 59.221303,28.1567612 58.0423992,28.1567612 C57.0289555,28.1567612 56.6566701,28.7605618 56.57394,29.4476453 L53.0992761,29.4476453 C53.2647363,26.8242357 55.3123061,25.5333517 58.2699069,25.5333517 C61.2481903,25.5333517 63.1509824,26.7617736 63.1509824,29.6558524 L63.1509824,36.7140733 L59.5522234,36.7140733 L59.5522234,35.4440099 C59.0351603,36.2351969 58.0837642,36.9639218 56.3464323,36.9639218 Z M57.6287487,34.4446158 C58.6835574,34.4446158 59.4694933,33.8408152 59.4694933,32.9038832 L59.4694933,32.2376205 L58.4974147,32.2376205 C57.008273,32.2376205 56.3464323,32.5291104 56.3464323,33.424401 C56.3464323,34.0490223 56.7600827,34.4446158 57.6287487,34.4446158 Z M65.2605998,36.7140733 L68.9627715,36.7140733 L68.9627715,30.6136051 C68.9627715,29.2186175 69.7073423,28.5523547 70.803516,28.5523547 C71.8790072,28.5523547 72.3547053,29.1561553 72.3547053,30.3845773 L72.3547053,36.7140733 L76.0568769,36.7140733 L76.0568769,29.6350317 C76.0568769,26.8450565 74.6091003,25.5333517 72.5201655,25.5333517 C70.7207859,25.5333517 69.5418821,26.449463 68.9627715,27.5737813 L68.9627715,25.8248416 L65.2605998,25.8248416 L65.2605998,36.7140733 Z M83.2750776,36.9639218 C86.770424,36.9639218 88.6111686,35.1733407 88.7145812,32.4250069 L85.3846949,32.4250069 C85.2605998,33.6117874 84.5367115,34.2364087 83.5025853,34.2364087 C82.0961737,34.2364087 81.3722854,33.2578353 81.3722854,31.3631506 L81.3722854,31.196585 C81.3722854,29.3643624 82.1375388,28.4274305 83.4405377,28.4274305 C84.516029,28.4274305 85.0124095,28.9895896 85.1778697,30.0098045 L88.6525336,30.0098045 C88.4457084,26.6993115 86.0051706,25.5333517 83.3578077,25.5333517 C80.1726991,25.5333517 77.5873837,27.6154227 77.5873837,31.2382264 L77.5873837,31.4047921 C77.5873837,35.0692371 80.0486039,36.9639218 83.2750776,36.9639218 Z M95.5191313,36.9639218 C92.1271975,36.9639218 89.6452947,34.9651336 89.6452947,31.4047921 L89.6452947,31.2382264 C89.6452947,27.740347 92.2306101,25.5333517 95.4984488,25.5333517 C98.4560496,25.5333517 101,27.24065 101,31.1549435 L101,32.1335169 L93.3888314,32.1335169 C93.4922441,33.570146 94.319545,34.4029744 95.6432265,34.4029744 C96.8634953,34.4029744 97.3805584,33.8408152 97.5253361,33.1120903 L101,33.1120903 C100.66908,35.5689342 98.78697,36.9639218 95.5191313,36.9639218 Z M93.4301965,30.0306252 L97.401241,30.0306252 C97.3391934,28.7189204 96.6980352,27.9901955 95.4984488,27.9901955 C94.3815926,27.9901955 93.6163392,28.7189204 93.4301965,30.0306252 Z M1.99276112,55.7501515 L6.25336091,55.7501515 L6.25336091,50.4825117 L10.8241986,50.4825117 L10.8241986,47.3385844 L6.25336091,47.3385844 L6.25336091,44.1738364 L11.9824199,44.1738364 L11.9824199,40.8633434 L1.99276112,40.8633434 L1.99276112,55.7501515 Z M17.1944157,56 C18.9937952,56 20.0486039,55.1879923 20.6277146,54.0636739 L20.6277146,55.7501515 L24.3298862,55.7501515 L24.3298862,44.8609199 L20.6277146,44.8609199 L20.6277146,51.1279537 C20.6277146,52.5229413 19.9038263,53.1892041 18.78697,53.1892041 C17.7321613,53.1892041 17.2564633,52.5854035 17.2564633,51.3569815 L17.2564633,44.8609199 L13.5542916,44.8609199 L13.5542916,51.9607822 C13.5542916,54.7091159 15.1054809,56 17.1944157,56 Z M26.5222337,55.7501515 L30.2244054,55.7501515 L30.2244054,49.6496833 C30.2244054,48.2546957 30.9689762,47.5884329 32.0651499,47.5884329 C33.1406412,47.5884329 33.6163392,48.1922335 33.6163392,49.4206555 L33.6163392,55.7501515 L37.3185109,55.7501515 L37.3185109,48.6711099 C37.3185109,45.8811347 35.8707342,44.5694299 33.7817994,44.5694299 C31.9824199,44.5694299 30.803516,45.4855412 30.2244054,46.6098595 L30.2244054,44.8609199 L26.5222337,44.8609199 L26.5222337,55.7501515 Z M43.4405377,56 C40.9379524,56 38.8903826,54.1885982 38.8903826,50.4200496 L38.8903826,50.2534839 C38.8903826,46.5473974 40.9172699,44.5694299 43.4819028,44.5694299 C45.1778697,44.5694299 46.1913133,45.2981548 46.811789,46.4016524 L46.811789,40.0721564 L50.5139607,40.0721564 L50.5139607,55.7501515 L46.811789,55.7501515 L46.811789,53.9803911 C46.2740434,55.1047094 45.0744571,56 43.4405377,56 Z M44.7435367,53.1475627 C46.0879007,53.1475627 46.9152017,52.2106307 46.9152017,50.3575874 L46.9152017,50.1910218 C46.9152017,48.3587992 46.1499483,47.3802258 44.7849018,47.3802258 C43.3991727,47.3802258 42.6546019,48.3171578 42.6546019,50.2118425 L42.6546019,50.3784082 C42.6546019,52.2106307 43.4612203,53.1475627 44.7435367,53.1475627 Z" id="tff-logo"></path>
            </g>
        </g>
    </g>
</svg>